<?xml version="1.0" encoding="UTF-8" standalone="no"?>
<!-- Created with Inkscape (http://www.inkscape.org/) -->

<svg
   width="160"
   height="160"
   viewBox="0 0 42.333333 42.333333"
   version="1.1"
   id="svg5"
   xml:space="preserve"
   inkscape:version="1.2.2 (b0a8486541, 2022-12-01)"
   sodipodi:docname="Computer.svg"
   xmlns:inkscape="http://www.inkscape.org/namespaces/inkscape"
   xmlns:sodipodi="http://sodipodi.sourceforge.net/DTD/sodipodi-0.dtd"
   xmlns="http://www.w3.org/2000/svg"
   xmlns:svg="http://www.w3.org/2000/svg"><sodipodi:namedview
     id="namedview7"
     pagecolor="#505050"
     bordercolor="#eeeeee"
     borderopacity="1"
     inkscape:showpageshadow="0"
     inkscape:pageopacity="0"
     inkscape:pagecheckerboard="0"
     inkscape:deskcolor="#505050"
     inkscape:document-units="mm"
     showgrid="false"
     inkscape:zoom="2.8863636"
     inkscape:cx="39.496063"
     inkscape:cy="97.181104"
     inkscape:window-width="1920"
     inkscape:window-height="997"
     inkscape:window-x="0"
     inkscape:window-y="0"
     inkscape:window-maximized="1"
     inkscape:current-layer="layer1"
     showguides="true"><sodipodi:guide
       position="21.45,42.241666"
       orientation="1,0"
       id="guide536"
       inkscape:locked="false" /><sodipodi:guide
       position="-0.091666666,20.608333"
       orientation="0,-1"
       id="guide538"
       inkscape:locked="false" /></sodipodi:namedview><defs
     id="defs2" /><g
     inkscape:label="Layer 1"
     inkscape:groupmode="layer"
     id="layer1"><path
       style="fill:#000000;stroke-width:0.215004"
       d="m 5.7063601,35.149509 c -0.6132681,-0.613267 -0.2926674,-2.264338 1.069097,-5.505772 0.7299059,-1.73741 1.4313598,-3.230012 1.5587861,-3.316891 0.127425,-0.08687 5.0332618,-0.159444 10.9018578,-0.161254 8.285168,-0.0026 10.71661,0.05678 10.877933,0.265465 0.114264,0.147815 0.755549,1.574911 1.425067,3.171324 1.034052,2.465608 1.217127,3.101399 1.2161,4.223345 -8.6e-4,1.005262 -0.08246,1.351953 -0.341304,1.451283 -0.18705,0.07178 -6.214716,0.130506 -13.394812,0.130506 -9.8669977,0 -13.1177192,-0.063 -13.3127249,-0.258006 z M 31.46396,32.095185 c 0,-0.04799 -0.469264,-1.184831 -1.042808,-2.526309 l -1.04281,-2.439053 -10.201929,-0.05581 -10.2019296,-0.05581 -1.0105471,2.428704 c -0.5558015,1.335787 -1.0105472,2.497741 -1.0105472,2.582118 0,0.08438 5.5148779,0.153414 12.2552859,0.153414 6.740406,0 12.255285,-0.03926 12.255285,-0.08725 z M 9.3408652,31.125822 C 9.1758176,31.021318 9.1002173,30.780915 9.1728636,30.591601 c 0.1148505,-0.299298 0.6783041,-0.344206 4.3187414,-0.344206 4.217676,0 4.755653,0.0975 4.204218,0.761934 -0.210205,0.253283 -1.004363,0.312461 -4.157357,0.309799 -2.143632,-0.0017 -4.0325532,-0.0888 -4.1976008,-0.193306 z m 9.9215608,0.0542 c -0.147817,-0.05964 -0.268757,-0.293888 -0.268757,-0.520537 0,-0.371781 0.168265,-0.412094 1.720041,-0.412094 1.544299,0 1.72004,0.04158 1.72004,0.407007 0,0.223854 -0.153042,0.465736 -0.340093,0.537512 -0.40003,0.153508 -2.442596,0.144931 -2.831231,-0.01184 z m 4.469169,-0.170699 c -0.365956,-0.440948 -0.09217,-0.761934 0.649889,-0.761934 0.477077,0 0.632325,0.09993 0.632325,0.407007 0,0.364952 -0.386208,0.668018 -0.851278,0.668018 -0.09411,0 -0.288022,-0.140891 -0.430936,-0.313091 z m 2.588671,0.01037 c -0.376351,-0.453485 -0.105443,-0.77232 0.656232,-0.77232 0.548273,0 0.63677,0.074 0.578573,0.483762 -0.0825,0.580946 -0.844382,0.75898 -1.234805,0.28855 z m -15.636841,-2.17713 c -0.163168,-0.425206 0.28209,-0.770756 0.892572,-0.692698 0.268346,0.03431 0.43001,0.216647 0.43001,0.484992 0,0.567313 -1.117258,0.742772 -1.322582,0.207706 z m 2.614406,0.117706 c -0.220204,-0.356295 0.328974,-0.892477 0.839412,-0.819548 0.693727,0.09912 0.59404,0.907343 -0.122136,0.990221 -0.314027,0.03634 -0.636802,-0.04046 -0.717276,-0.170673 z m 2.58006,0 c -0.220203,-0.356295 0.328973,-0.892477 0.839411,-0.819548 0.693729,0.09912 0.594041,0.907343 -0.122135,0.990221 -0.314028,0.03634 -0.636802,-0.04046 -0.717276,-0.170673 z m 2.580061,0 c -0.220203,-0.356295 0.328973,-0.892477 0.83941,-0.819548 0.693728,0.09912 0.594041,0.907343 -0.122133,0.990221 -0.314029,0.03634 -0.636802,-0.04046 -0.717277,-0.170673 z m 2.58006,0 c -0.220204,-0.356295 0.328972,-0.892477 0.839409,-0.819548 0.69373,0.09912 0.594042,0.907343 -0.122133,0.990221 -0.314027,0.03634 -0.636802,-0.04046 -0.717276,-0.170673 z m 2.58006,0 c -0.220203,-0.356295 0.328973,-0.892477 0.83941,-0.819548 0.693728,0.09912 0.594042,0.907343 -0.122133,0.990221 -0.314029,0.03634 -0.636802,-0.04046 -0.717277,-0.170673 z m 2.58006,0 c -0.220204,-0.356295 0.328973,-0.892477 0.83941,-0.819548 0.693729,0.09912 0.594041,0.907343 -0.122134,0.990221 -0.314027,0.03634 -0.636802,-0.04046 -0.717276,-0.170673 z m 9.011421,3.562099 c -1.053552,-0.458749 -1.407994,-1.475579 -1.33491,-3.82962 l 0.06187,-1.992935 0.913771,-0.06612 0.913771,-0.06612 v -1.557171 c 0,-0.924461 -0.104833,-1.662006 -0.258006,-1.81518 -0.175764,-0.175766 -1.204654,-0.258006 -3.227893,-0.258006 h -2.969892 l -1.069382,1.075026 -1.069381,1.075024 H 18.664208 10.158916 L 9.6311758,24.559525 9.103436,24.031787 V 13.69201 3.3522244 L 9.6311758,2.8244848 10.158916,2.2967453 h 8.537399 8.5374 l 1.044184,0.6700526 c 2.027953,1.3013339 1.895994,0.5791425 1.896284,10.3779481 l 2.15e-4,8.624956 h 2.772591 c 3.613216,0 3.677089,0.04705 3.677089,2.708523 v 1.889359 l 0.91377,0.06612 0.913772,0.06612 0.06187,1.992935 c 0.07444,2.397641 -0.278342,3.377495 -1.382047,3.838652 -0.862393,0.360329 -1.075924,0.359327 -1.921896,-0.009 z M 12.11351,22.399713 c 0,-0.394175 -0.114668,-0.537513 -0.430011,-0.537513 -0.315341,0 -0.43001,0.143338 -0.43001,0.537513 0,0.394175 0.114668,0.537511 0.43001,0.537511 0.315341,0 0.430011,-0.143336 0.430011,-0.537511 z m 16.772747,-0.591265 c 0.403617,-0.66198 0.426087,-1.101709 0.426848,-8.353111 C 29.313966,5.7884859 29.215375,4.6199996 28.546367,4.3632789 28.282701,4.2621 28.238885,5.5464556 28.238885,13.37625 c 0,5.02203 0.04979,9.130965 0.110665,9.130965 0.06086,0 0.302383,-0.314445 0.536709,-0.698767 z m -3.268103,-0.863535 c 0.07197,-0.868228 -0.359759,-1.273399 -0.888925,-0.834229 -0.153509,0.1274 -1.385869,0.259164 -2.738577,0.29281 -2.295741,0.0571 -2.45947,0.0898 -2.45947,0.491184 0,0.401493 0.163758,0.434073 2.469322,0.491275 1.358126,0.0337 2.565514,0.157458 2.683088,0.275032 0.433244,0.433244 0.866828,0.101026 0.934562,-0.716072 z M 24.691302,10.789442 V 6.4893431 h -6.02014 -6.020141 l -0.05821,4.3572059 -0.05821,4.357208 6.078353,-0.0571 6.078355,-0.0571 z m -5.410315,2.135879 c -0.125776,-0.327769 1.08806,-1.813372 1.481647,-1.813372 0.520619,0 0.375501,0.737808 -0.277664,1.411705 -0.797041,0.822336 -1.014693,0.894948 -1.203983,0.401667 z m -2.36763,-0.651726 c -0.0907,-0.236381 0.345994,-0.821151 1.401369,-1.876527 1.454163,-1.4541624 1.552324,-1.5139521 1.90559,-1.1606854 0.353268,0.3532657 0.29557,0.4499307 -1.120097,1.8765264 -1.525976,1.53776 -1.954822,1.765372 -2.186862,1.160686 z M 16.07962,10.233351 c -0.169102,-0.2736127 1.1446,-1.7014601 1.565442,-1.7014601 0.576937,0 0.545471,0.6696127 -0.06123,1.3028644 -0.620439,0.6475977 -1.247615,0.8137917 -1.50422,0.3985957 z"
       id="path577" /></g></svg>
