<?xml version="1.0" encoding="UTF-8" standalone="no"?>
<!-- Created with Inkscape (http://www.inkscape.org/) -->

<svg
   width="160"
   height="160"
   viewBox="0 0 42.333333 42.333333"
   version="1.1"
   id="svg5"
   xml:space="preserve"
   inkscape:version="1.2.2 (b0a8486541, 2022-12-01)"
   sodipodi:docname="Controller.svg"
   xmlns:inkscape="http://www.inkscape.org/namespaces/inkscape"
   xmlns:sodipodi="http://sodipodi.sourceforge.net/DTD/sodipodi-0.dtd"
   xmlns="http://www.w3.org/2000/svg"
   xmlns:svg="http://www.w3.org/2000/svg"><sodipodi:namedview
     id="namedview7"
     pagecolor="#505050"
     bordercolor="#eeeeee"
     borderopacity="1"
     inkscape:showpageshadow="0"
     inkscape:pageopacity="0"
     inkscape:pagecheckerboard="0"
     inkscape:deskcolor="#505050"
     inkscape:document-units="mm"
     showgrid="false"
     inkscape:zoom="2.8863636"
     inkscape:cx="39.496063"
     inkscape:cy="97.181104"
     inkscape:window-width="1920"
     inkscape:window-height="997"
     inkscape:window-x="0"
     inkscape:window-y="0"
     inkscape:window-maximized="1"
     inkscape:current-layer="layer1" /><defs
     id="defs2" /><g
     inkscape:label="Layer 1"
     inkscape:groupmode="layer"
     id="layer1"><path
       style="fill:#000000;stroke-width:0.153446"
       d="m 33.118066,38.225585 c -1.95866,-0.404266 -3.428682,-2.099823 -3.787182,-4.368226 -0.05335,-0.337581 -0.201936,-0.946436 -0.330185,-1.353014 -0.182558,-0.578736 -0.28806,-0.718068 -0.48594,-0.641752 -1.822568,0.702907 -3.237246,0.293905 -3.984987,-1.15211 -0.296805,-0.573977 -0.345372,-0.85937 -0.290362,-1.706238 l 0.06606,-1.016972 -0.783758,-0.09418 c -1.014024,-0.121845 -3.629128,-0.121032 -4.648638,0.0014 l -0.795965,0.09562 0.08681,0.732956 c 0.04774,0.403125 0.04001,0.982428 -0.01719,1.287337 -0.11689,0.623078 -0.836792,1.524726 -1.485035,1.859945 -0.554974,0.286988 -1.839553,0.28498 -2.531077,-0.0039 l -0.541583,-0.226288 -0.232617,0.556731 c -0.127938,0.3062 -0.331381,1.072929 -0.452095,1.70384 -0.503476,2.631498 -2.066184,4.143376 -4.4368183,4.29257 -2.5634136,0.161325 -4.6917886,-1.631117 -4.9344098,-4.155585 -0.08643,-0.899304 2.0618682,-13.46884 2.5090843,-14.680467 0.3744456,-1.014471 1.5857811,-2.2221 2.6354436,-2.62738 1.3742142,-0.53059 2.5039192,-0.461856 4.7001462,0.285969 1.75688,0.598226 3.848381,1.113399 4.520181,1.113399 0.213437,0 0.313361,-0.100137 0.313361,-0.314028 0,-0.188266 0.183967,-0.418712 0.459367,-0.575423 0.252652,-0.143766 0.459804,-0.390355 0.460338,-0.547975 4.6e-4,-0.157621 0.271457,-0.557071 0.602055,-0.887668 l 0.601084,-0.601084 0.05106,-3.408815 0.05106,-3.4088134 L 20.883,7.5791791 c 1.055651,-1.9052741 3.113,-2.5001643 5.039628,-1.4572497 1.334314,0.722285 1.797429,1.5978916 1.948835,3.6846339 0.07786,1.0730437 0.17936,1.5240777 0.414387,1.8413497 1.106147,1.493229 2.992542,1.487436 4.105088,-0.01261 C 32.691104,11.23059 32.71495,10.97414 32.75832,7.6840747 L 32.8047,4.1656508 h 0.690112 0.690109 l -0.04598,3.7336047 -0.04599,3.7336045 -0.464395,0.750627 c -0.287548,0.464782 -0.750434,0.927473 -1.215532,1.215022 -0.675368,0.417548 -0.877399,0.464394 -2.002772,0.464394 -1.125372,0 -1.327403,-0.04684 -2.002771,-0.464394 -0.457541,-0.282918 -0.92738,-0.74949 -1.202006,-1.193685 C 26.818829,11.779436 26.737412,11.453452 26.633804,10.115882 26.544727,8.9659064 26.436691,8.4531289 26.222544,8.1638816 25.144043,6.7071582 23.096706,6.7215472 22.200066,8.1921522 21.920722,8.650314 21.895102,8.9700728 21.894577,12.005068 l -5.74e-4,3.312816 0.392599,0.178879 c 0.231049,0.105274 0.51643,0.458822 0.693538,0.859205 0.165516,0.374178 0.440514,0.724623 0.611104,0.778766 0.182848,0.05803 0.346942,0.282335 0.399763,0.546438 0.04928,0.246398 0.121908,0.447996 0.161399,0.447996 0.486127,0 3.49294,-0.751204 4.971569,-1.242067 1.651154,-0.548137 2.03103,-0.621672 2.899921,-0.561356 1.217163,0.08449 2.331345,0.553417 3.118063,1.312297 1.131015,1.090995 1.227034,1.431755 2.47783,8.793516 0.634287,3.733197 1.153249,7.005 1.153249,7.270673 0,1.326689 -0.853609,2.916793 -2.019002,3.761 -0.973009,0.704844 -2.432241,1.010801 -3.63597,0.762354 z m -4.910743,-7.611704 c 1.145012,-1.096993 0.413668,-2.971075 -1.159437,-2.971075 -0.732836,0 -1.222657,0.291711 -1.548783,0.922368 -0.9122,1.763999 1.276898,3.419999 2.70822,2.048707 z M 16.336689,30.77913 c 0.920249,-0.644568 1.041141,-1.804122 0.275226,-2.63988 -0.457848,-0.499598 -0.61412,-0.573167 -1.217491,-0.573167 -1.673107,0 -2.37896,2.109037 -1.054523,3.150839 0.468986,0.368905 1.512504,0.401413 1.996788,0.06221 z m 15.579739,-3.314834 c 0.516648,-0.275169 0.708576,-0.611938 0.7139,-1.252667 0.0059,-0.717857 -0.662843,-1.484292 -1.295227,-1.484292 -1.002771,0 -1.748632,0.885263 -1.541277,1.829344 0.195584,0.890486 1.282303,1.355161 2.122604,0.907615 z M 12.463359,26.052053 c 1.341067,-0.624482 2.065247,-1.761568 2.065247,-3.242789 0,-1.481221 -0.72418,-2.618306 -2.065247,-3.24279 -1.402427,-0.653054 -2.7762411,-0.419985 -3.9398075,0.668395 -0.5479807,0.512572 -0.8086623,0.905483 -0.9771304,1.472777 -0.2865636,0.964965 -0.2867005,1.23781 -0.00111,2.199521 0.6062548,2.041482 2.9474219,3.062526 4.9180409,2.144886 z M 10.001957,24.595287 C 9.2707591,24.14363 8.9738418,23.715147 8.8925994,22.994364 c -0.2701047,-2.39636 2.9944286,-3.297453 3.9684996,-1.095405 0.21602,0.488351 0.275908,0.841446 0.201223,1.186406 -0.314913,1.454537 -1.891077,2.232185 -3.060365,1.509922 z m 12.876894,0.499246 c 0.286759,-0.110039 0.325343,-0.836977 0.05859,-1.103737 -0.120054,-0.120054 -0.750179,-0.184135 -1.81066,-0.184135 -1.709167,0 -1.994795,0.09887 -1.994795,0.690507 0,0.587769 0.288077,0.690506 1.936211,0.690506 0.862368,0 1.677165,-0.04191 1.81066,-0.09314 z m 6.6124,-0.704072 c 0.993928,-1.181216 -0.20429,-2.855153 -1.623078,-2.267472 -0.908909,0.376483 -1.168116,1.507365 -0.521607,2.275697 0.621659,0.738798 1.519002,0.735358 2.144685,-0.0082 z m 5.056765,0.425687 c 1.495134,-0.624708 1.083395,-2.767139 -0.531797,-2.767139 -1.592004,0 -2.027264,2.124859 -0.565492,2.760626 0.605629,0.263407 0.48418,0.262685 1.097289,0.0065 z M 22.937435,22.088069 c 0.101274,-0.101274 0.184135,-0.376162 0.184135,-0.61086 0,-0.547907 -0.254983,-0.611882 -2.208681,-0.554154 -1.710581,0.05054 -1.997276,0.215161 -1.660813,0.953618 0.177516,0.389608 0.205081,0.395531 1.84072,0.395531 1.086908,0 1.72411,-0.06361 1.844639,-0.184135 z m 8.978993,-0.14782 c 0.516648,-0.27517 0.708576,-0.61194 0.7139,-1.252667 0.0059,-0.717858 -0.662843,-1.484294 -1.295227,-1.484294 -1.002771,0 -1.748632,0.885264 -1.541277,1.829346 0.195584,0.890486 1.282303,1.35516 2.122604,0.907615 z"
       id="path405" /></g></svg>
