<?xml version="1.0" encoding="UTF-8" standalone="no"?>
<!-- Created with Inkscape (http://www.inkscape.org/) -->

<svg
   width="160"
   height="160"
   viewBox="0 0 42.333333 42.333333"
   version="1.1"
   id="svg5"
   xml:space="preserve"
   inkscape:version="1.2.2 (b0a8486541, 2022-12-01)"
   sodipodi:docname="Dumbell.svg"
   xmlns:inkscape="http://www.inkscape.org/namespaces/inkscape"
   xmlns:sodipodi="http://sodipodi.sourceforge.net/DTD/sodipodi-0.dtd"
   xmlns="http://www.w3.org/2000/svg"
   xmlns:svg="http://www.w3.org/2000/svg"><sodipodi:namedview
     id="namedview7"
     pagecolor="#505050"
     bordercolor="#eeeeee"
     borderopacity="1"
     inkscape:showpageshadow="0"
     inkscape:pageopacity="0"
     inkscape:pagecheckerboard="0"
     inkscape:deskcolor="#505050"
     inkscape:document-units="mm"
     showgrid="false"
     inkscape:zoom="2.8863636"
     inkscape:cx="16.629921"
     inkscape:cy="97.52756"
     inkscape:window-width="1920"
     inkscape:window-height="997"
     inkscape:window-x="0"
     inkscape:window-y="0"
     inkscape:window-maximized="1"
     inkscape:current-layer="layer1"
     showguides="true"><sodipodi:guide
       position="21.45,42.241666"
       orientation="1,0"
       id="guide536"
       inkscape:locked="false" /><sodipodi:guide
       position="-0.091666666,20.608333"
       orientation="0,-1"
       id="guide538"
       inkscape:locked="false" /></sodipodi:namedview><defs
     id="defs2" /><g
     inkscape:label="Layer 1"
     inkscape:groupmode="layer"
     id="layer1"><path
       style="fill:#000000;stroke-width:0.0988752"
       d="M 9.9726436,33.878134 C 9.4727891,33.718963 8.6309802,32.861454 8.4988339,32.376838 8.4243442,32.103663 8.3908175,28.93627 8.3904367,22.136151 8.3898107,10.960515 8.337394,11.698073 9.1865045,10.93465 10.121237,10.094245 11.333239,10.063683 12.26022,10.85714 c 0.224513,0.192175 0.51295,0.574352 0.640973,0.849283 l 0.232768,0.499874 v 9.936955 9.936956 l -0.232768,0.499874 c -0.527562,1.132951 -1.748101,1.67394 -2.9285494,1.298048 z m 20.9956734,-0.03082 c -0.458512,-0.162536 -1.033373,-0.674533 -1.295398,-1.153738 -0.161844,-0.295991 -0.173187,-0.986999 -0.173187,-10.550318 0,-11.335981 -0.04941,-10.465584 0.632836,-11.147831 1.137724,-1.1377241 3.025128,-0.835422 3.797652,0.608263 l 0.216644,0.404863 v 10.134705 10.134706 l -0.219059,0.409596 c -0.582781,1.089683 -1.805484,1.568831 -2.959488,1.159754 z M 4.7315044,32.395885 C 4.1943055,32.226562 3.4065088,31.381871 3.2662355,30.824795 3.10138,30.170095 3.099534,13.978025 3.2642521,13.428244 c 0.1625313,-0.542481 0.7287964,-1.159939 1.3134412,-1.432181 0.9308995,-0.433477 1.8026901,-0.263661 2.5914491,0.504788 0.3368614,0.328187 0.546125,0.6305 0.6174183,0.891952 0.1507282,0.552763 0.1507282,16.948144 0,17.500907 -0.1418695,0.520275 -0.9788967,1.344184 -1.533963,1.509922 -0.4848612,0.144776 -1.0462668,0.141916 -1.5210933,-0.0077 z m 31.5322576,-2.97e-4 c -0.574479,-0.215099 -1.05152,-0.642391 -1.321063,-1.183294 L 34.690678,30.70657 v -8.563314 -8.563313 l 0.252021,-0.505741 c 0.869564,-1.744987 3.284441,-1.732445 4.231135,0.02198 l 0.213414,0.3955 v 8.651578 c 0,8.251759 -0.0085,8.667572 -0.184319,8.997642 -0.435472,0.817606 -1.136366,1.282107 -2.033215,1.347467 -0.320026,0.02332 -0.699764,-0.01556 -0.905952,-0.09276 z M 13.630269,21.797193 v -2.125816 h 7.662825 7.662824 v 2.125816 2.125817 h -7.662824 -7.662825 z m 26.300792,-0.0025 v -2.02948 l 0.291515,0.150748 c 1.136973,0.587951 1.326974,2.460824 0.352793,3.477537 -0.226963,0.236873 -0.46478,0.430678 -0.528484,0.430678 -0.08475,0 -0.115824,-0.544424 -0.115824,-2.029481 z M 2.0907544,23.403915 C 1.5449776,22.831777 1.3391721,21.856708 1.5885246,21.024443 c 0.1208611,-0.403399 0.7407252,-1.155316 0.9524168,-1.155316 0.082426,0 0.1141846,0.536267 0.1141846,1.928066 0,2.130535 -0.017411,2.180102 -0.5643716,1.606722 z"
       id="path540" /></g></svg>
